HIERARCHY
ROOT Hips
{
    OFFSET 0.000000 0.000000 0.000000
    CHANNELS 6 Xposition Yposition Zposition Zrotation Xrotation Yrotation
    JOINT Spine
    {
        OFFSET -0.000000 7.236184 0.000000
        CHANNELS 3 Zrotation Xrotation Yrotation
        JOINT Spine1
        {
            OFFSET -0.000000 20.420147 0.000000
            CHANNELS 3 Zrotation Xrotation Yrotation
            JOINT Neck
            {
                OFFSET -0.000000 20.336288 1.848754
                CHANNELS 3 Zrotation Xrotation Yrotation
                JOINT Head
                {
                    OFFSET -0.000000 12.354461 -1.764923
                    CHANNELS 3 Zrotation Xrotation Yrotation
                    End Site
                    {
                        OFFSET -0.000000 22.061537 0.000000
                    }
                }
            }
            JOINT LeftShoulder
            {
                OFFSET 3.573296 18.396038 -0.314103
                CHANNELS 3 Zrotation Xrotation Yrotation
                JOINT LeftArm
                {
                    OFFSET 10.880760 0.000000 0.000000
                    CHANNELS 3 Zrotation Xrotation Yrotation
                    JOINT LeftForeArm
                    {
                        OFFSET 27.185530 0.000000 0.000000
                        CHANNELS 3 Zrotation Xrotation Yrotation
                        JOINT LeftHand
                        {
                            OFFSET 27.825975 0.000000 0.000000
                            CHANNELS 3 Zrotation Xrotation Yrotation
                            End Site
                            {
                                OFFSET 13.236923 0.000000 0.000000
                            }
                        }
                    }
                }
            }
            JOINT RightShoulder
            {
                OFFSET -3.474926 18.396038 -0.314103
                CHANNELS 3 Zrotation Xrotation Yrotation
                JOINT RightArm
                {
                    OFFSET -10.880760 0.000000 0.000000
                    CHANNELS 3 Zrotation Xrotation Yrotation
                    JOINT RightForeArm
                    {
                        OFFSET -27.185530 0.000000 0.000000
                        CHANNELS 3 Zrotation Xrotation Yrotation
                        JOINT RightHand
                        {
                            OFFSET -27.825975 0.000000 0.000000
                            CHANNELS 3 Zrotation Xrotation Yrotation
                            End Site
                            {
                                OFFSET -13.236923 0.000000 0.000000
                            }
                        }
                    }
                }
            }
        }
    }
    JOINT LeftUpLeg
    {
        OFFSET 8.824615 0.000000 0.000000
        CHANNELS 3 Zrotation Xrotation Yrotation
        JOINT LeftLeg
        {
            OFFSET -0.000000 -35.111282 0.000000
            CHANNELS 3 Zrotation Xrotation Yrotation
            JOINT LeftFoot
            {
                OFFSET -0.000000 -42.324711 0.000000
                CHANNELS 3 Zrotation Xrotation Yrotation
                JOINT LeftToeBase
                {
                    OFFSET -0.000000 -5.735999 13.236923
                    CHANNELS 3 Zrotation Xrotation Yrotation
                    End Site
                    {
                        OFFSET -0.000000 0.000000 3.529846
                    }
                }
            }
        }
    }
    JOINT RightUpLeg
    {
        OFFSET -8.824615 0.000000 0.000000
        CHANNELS 3 Zrotation Xrotation Yrotation
        JOINT RightLeg
        {
            OFFSET -0.000000 -35.111282 0.000000
            CHANNELS 3 Zrotation Xrotation Yrotation
            JOINT RightFoot
            {
                OFFSET -0.000000 -42.324711 0.000000
                CHANNELS 3 Zrotation Xrotation Yrotation
                JOINT RightToeBase
                {
                    OFFSET -0.000000 -5.735999 13.236923
                    CHANNELS 3 Zrotation Xrotation Yrotation
                    End Site
                    {
                        OFFSET -0.000000 0.000000 3.529846
                    }
                }
            }
        }
    }
}
MOTION
Frames:    11
Frame Time:    0.008333
-21.975330    81.874374    86.186264    -13.046991    12.070954    93.249626    -1.396988    -11.922926    -0.374412    9.035318    11.163282    -1.113414    7.320153    12.957830    21.660049    -15.804358    7.372617    21.211494    6.077942    20.181969    -4.429554    -56.638592    43.281773    -25.524975    48.334827    -26.517099    -76.162643    55.573757    8.999710    -10.463508    2.959017    10.993816    -3.649617    33.419666    23.399757    56.943760    -2.936915    -19.751480    129.573959    -12.185099    -12.998207    -7.497145    7.241679    -24.433382    3.360710    -5.018779    35.737823    25.633429    -13.613570    7.972878    -17.595634    -2.115160    -9.056338    2.386500    -9.119376    -29.294113    -0.398910    4.361407    38.794010    4.337209    -11.315567    -12.327024    -25.159081    -0.412470    -4.277814    0.448849    
-22.022135    81.852592    86.154068    -13.127288    12.053190    92.885780    -1.400311    -11.986864    -0.478014    9.322506    11.286147    -1.254251    7.072764    12.889751    21.802532    -15.740211    7.334136    21.364031    6.267058    19.854122    -4.581227    -56.556507    43.221832    -24.975920    48.331310    -25.862436    -75.079689    55.684612    8.814282    -10.490581    2.747776    10.835329    -3.275256    33.367912    22.946648    57.679909    -2.982132    -19.399771    129.190628    -11.814898    -12.645278    -7.224055    7.193259    -24.243874    3.311866    -4.778404    35.479355    25.332315    -13.823310    7.578405    -17.378366    -2.170232    -9.169462    2.449225    -9.061532    -29.597624    -0.293743    4.404156    38.944649    4.378860    -11.161324    -12.210998    -24.939247    -0.433366    -4.378458    0.471658    
-22.071251    81.892632    86.117950    -13.214781    12.115107    92.566971    -1.380948    -12.030617    -0.555716    9.522236    11.369862    -1.360393    6.797573    12.823420    21.909851    -15.658463    7.307004    21.483692    6.448369    19.517391    -4.709800    -56.468693    43.039749    -24.357073    48.234909    -25.110104    -73.972809    55.827793    8.633705    -10.515485    2.500706    10.673934    -2.872730    33.351173    22.563246    58.350410    -3.021873    -19.089630    128.833405    -11.413454    -12.343523    -6.954732    7.184961    -24.117367    3.319203    -4.653426    35.255379    25.175882    -14.049950    7.487192    -17.318268    -2.190866    -9.245511    2.472914    -9.122276    -29.831266    -0.241079    4.451869    38.963078    4.391525    -10.949162    -12.017934    -24.659052    -0.450762    -4.492088    0.490674    
-22.120707    81.993683    86.081970    -13.302305    12.254057    92.309761    -1.345795    -12.046740    -0.600312    9.626011    11.407608    -1.422105    6.514812    12.761683    21.975273    -15.568512    7.293108    21.562529    6.610403    19.190498    -4.810077    -56.371044    42.748940    -23.719847    48.046959    -24.293142    -72.884499    55.998516    8.462999    -10.536931    2.233541    10.515190    -2.466916    33.355328    22.276245    58.911915    -3.058402    -18.855021    128.525742    -11.006416    -12.117140    -6.707104    7.228376    -24.064251    3.391499    -4.651591    35.087593    25.169909    -14.278900    7.712259    -17.428782    -2.175397    -9.278591    2.455630    -9.296294    -29.980083    -0.246910    4.493348    38.845119    4.380776    -10.687785    -11.756845    -24.328146    -0.463140    -4.610783    0.504237    
-22.174335    82.160606    86.045853    -13.393017    12.474084    92.095474    -1.297721    -12.032978    -0.614730    9.647496    11.402682    -1.443522    6.211524    12.699092    22.004353    -15.468223    7.293007    21.606649    6.764227    18.852003    -4.892224    -56.245644    42.342537    -23.043224    47.753418    -23.352060    -71.722969    56.210228    8.286459    -10.556248    1.933274    10.345809    -2.036342    33.365135    22.066484    59.401505    -3.099911    -18.694128    128.247055    -10.572020    -11.952197    -6.468246    7.336254    -24.080055    3.538015    -4.763640    34.972412    25.298134    -14.517991    8.253631    -17.713930    -2.126919    -9.262490    2.400827    -9.584349    -30.053377    -0.314658    4.518649    38.585197    4.358746    -10.358957    -11.412266    -23.923794    -0.471432    -4.740104    0.513364    
-22.229725    82.384956    86.013626    -13.480420    12.759790    91.940628    -1.242216    -11.987352    -0.597613    9.586305    11.354218    -1.422469    5.911035    12.638548    21.994297    -15.366048    7.309622    21.612305    6.901011    18.522453    -4.953927    -56.086540    41.850304    -22.387917    47.368557    -22.336536    -70.535492    56.451759    8.109086    -10.573783    1.621717    10.173892    -1.613231    33.369251    21.948744    59.785538    -3.150465    -18.631081    128.015411    -10.141535    -11.859555    -6.256886    7.515218    -24.168285    3.757564    -4.975471    34.928650    25.540810    -14.740803    9.073974    -18.159142    -2.052619    -9.180142    2.316552    -9.963481    -30.042288    -0.447129    4.512767    38.193874    4.339935    -9.977885    -11.002259    -23.469007    -0.475158    -4.870894    0.517523    
-22.288790    82.667007    85.985687    -13.567000    13.107468    91.841125    -1.180259    -11.911177    -0.552674    9.449734    11.265222    -1.363818    5.612067    12.578500    21.948154    -15.262671    7.344612    21.582850    7.026681    18.194136    -5.001174    -55.878895    41.278736    -21.757517    46.888351    -21.225769    -69.275764    56.728081    7.921317    -10.593181    1.297966    9.994231    -1.194677    33.362232    21.910229    60.079380    -3.217133    -18.663868    127.820801    -9.712564    -11.825624    -6.069776    7.774248    -24.328621    4.052537    -5.269650    34.961670    25.875187    -14.935665    10.144809    -18.753513    -1.960250    -9.012408    2.211519    -10.426105    -29.952374    -0.646345    4.467221    37.673325    4.335289    -9.537262    -10.522243    -22.960733    -0.475217    -5.004935    0.517691    
-22.350771    82.997223    85.963249    -13.652048    13.501661    91.799744    -1.114699    -11.809120    -0.485372    9.247153    11.141102    -1.273889    5.325162    12.521386    21.869408    -15.162575    7.398098    21.521271    7.140574    17.873720    -5.037387    -55.617035    40.654049    -21.178993    46.326279    -20.045406    -67.951584    57.034317    7.720412    -10.619727    0.974599    9.810101    -0.795459    33.342838    21.942007    60.281494    -3.303543    -18.789452    127.663559    -9.300428    -11.838848    -5.911139    8.112483    -24.556623    4.411640    -5.620213    35.079060    26.269985    -15.078526    11.391199    -19.460186    -1.859965    -8.743768    2.097185    -10.950105    -29.790405    -0.904301    4.380294    37.043621    4.350469    -9.046953    -9.985083    -22.418373    -0.473194    -5.139599    0.515592    
-22.414591    83.363655    85.946503    -13.735253    13.925841    91.813904    -1.047924    -11.688416    -0.402506    8.991413    10.990427    -1.162035    5.058060    12.469904    21.764107    -15.070124    7.468493    21.433279    7.243013    17.565664    -5.065875    -55.300316    40.004017    -20.668758    45.699749    -18.823690    -66.572983    57.365036    7.503682    -10.659344    0.662456    9.625136    -0.426181    33.315491    22.028473    60.398235    -3.410464    -18.992762    127.540550    -8.916202    -11.883308    -5.780659    8.522743    -24.842419    4.814804    -6.001889    35.282272    26.696644    -15.149328    12.719358    -20.229425    -1.760754    -8.372702    1.983765    -11.513059    -29.567926    -1.204705    4.259930    36.330868    4.383077    -8.519908    -9.405182    -21.863556    -0.471733    -5.274121    0.514104    
-22.486710    83.800575    85.933640    -13.826336    14.417255    91.884743    -0.974376    -11.541002    -0.300446    8.661822    10.801713    -1.022466    4.785643    12.421889    21.624113    -14.978316    7.563374    21.312454    7.345463    17.238302    -5.093073    -54.887486    39.276348    -20.182152    44.939877    -17.436836    -64.981705    57.758587    7.242743    -10.723580    0.334912    9.422043    -0.053710    33.282749    22.167164    60.445415    -3.550617    -19.284870    127.436249    -8.523996    -11.950692    -5.662269    9.052063    -25.213285    5.288819    -6.443749    35.602322    27.191830    -15.132601    14.193782    -21.105062    -1.658325    -7.857640    1.866349    -12.164827    -29.265791    -1.566095    4.103890    35.469551    4.430146    -7.905362    -8.722745    -21.252953    -0.475011    -5.425438    0.517795    
-22.558519    84.254623    85.926262    -13.916062    14.912982    92.006042    -0.903400    -11.388583    -0.195221    8.299316    10.599847    -0.876273    4.543519    12.387538    21.467642    -14.901428    7.672236    21.174698    7.435898    16.931559    -5.118446    -54.418465    38.565063    -19.784138    44.134125    -16.053780    -63.352341    58.172001    6.962696    -10.810774    0.037162    9.227375    0.271070    33.255676    22.334040    60.416367    -3.708718    -19.623831    127.363243    -8.174456    -12.022948    -5.569355    9.648958    -25.627974    5.760662    -6.891481    36.019871    27.700066    -15.013609    15.562255    -21.942940    -1.570151    -7.271173    1.764970    -12.823135    -28.920446    -1.932580    3.941016    34.564430    4.477003    -7.276997    -8.016376    -20.670876    -0.487167    -5.579750    0.531170    
